<svg width="300" viewBox="0 0 240 120" xmlns="http://www.w3.org/2000/svg">
    <g stroke="black" stroke-width="2.5" stroke-linejoin="round" stroke-linecap="round">
        
        <path d="M40,80 Q20,80 20,60 Q20,35 45,35 Q50,15 80,15 Q110,15 115,35 Q145,35 145,60 Q145,80 125,80 Z" 
              fill="#AEDFF7" />

        <polygon points="82,25 91,48 116,48 96,63 103,87 82,72 61,87 68,63 48,48 73,48" 
                 fill="white" />

        <path d="M160,40 L210,40" />
        <path d="M165,55 L225,55" />
        <path d="M162,70 L205,70" />
        <path d="M168,85 L195,85" />
    </g>
</svg>
